<svg xmlns="http://www.w3.org/2000/svg" width="166" height="166" fill="none" viewBox="0 0 166 166">
  <path fill="#fff" d="M133.384 75.624c.016.049.032.081.048.13a1.148 1.148 0 0 1-.048-.13Zm1.929 6.728c.016.064.032.145.048.21a4.287 4.287 0 0 1-.048-.21Zm-.519-2.286c.016.049.032.113.049.162a1.696 1.696 0 0 1-.049-.162Zm-1.021-3.42c.016.064.048.129.064.194-.016-.049-.048-.114-.064-.195Zm-37.367 31.643c0-.016-.016-.016-.016-.032 0 .016 0 .032.016.032Zm5.788-1.864c-.049.032-.081.081-.13.113a.43.43 0 0 1 .13-.113Zm32.308-27.478c.016.065.033.114.049.179a2.629 2.629 0 0 1-.049-.179Zm-33.394 28.596c-.13.163-.26.357-.389.535.129-.194.259-.372.389-.535Zm29.195-38.112c.017.033.049.065.065.098-.016-.016-.032-.049-.065-.097Zm-28.758 37.594c-.048.065-.113.113-.162.178.049-.049.114-.113.162-.178Zm-5.544.324c-.016-.033-.016-.049-.032-.081.016.032.032.048.032.081Zm3.453 3.258c-.032.065-.049.13-.081.211.032-.065.049-.13.081-.211Zm31.968-39.246c.032.064.081.145.114.21-.033-.08-.082-.146-.114-.21Zm-30.12 35.955c-.065.065-.113.146-.178.211.065-.081.113-.146.178-.211Zm12.11 6.566c-.017-.016-.033-.033-.033-.049 0 .033.016.033.033.049Zm-10.926-7.7c-.033.032-.065.048-.098.081.033-.016.065-.049.098-.081ZM99 111.92a3.14 3.14 0 0 1-.243-.227c.081.081.162.146.243.227Zm38.144-19.274-.875-.617 1.329.925-.454-.308Zm-41.5 13.649c-.016-.048-.032-.081-.032-.13a.312.312 0 0 1 .032.13Zm4.329 3.113c.178-.357.356-.681.535-1.005-.276.47-.551.972-.795 1.54.082-.179.179-.357.26-.535Zm27.672-43.64c.065.08.113.146.178.227a1.191 1.191 0 0 0-.178-.227ZM95.823 106.83a.233.233 0 0 1-.033-.113c.017.048.017.081.033.113Zm40.333-17.848c0 .113.016.21.016.324 0-.097-.016-.21-.016-.324Zm-36.945 22.274a.298.298 0 0 0-.032.113.298.298 0 0 0 .032-.113Zm36.475-26.764c.016.064.016.113.032.178-.016-.049-.016-.114-.032-.178Zm.389 3.371c.016.114.016.243.032.357-.016-.114-.032-.227-.032-.357ZM129.071 67.6c.033.048.065.097.114.146-.033-.033-.065-.098-.114-.146Zm6.906 19.193c.017.098.017.195.033.308-.016-.097-.016-.21-.033-.308Z"/>
  <path fill="#E6E6E6" d="m133.351 104.544 2.335 1.038c2.01.891 3.485 2.966 4.522 6.338 1.297-1.151 2.74-3.096 3.551-6.354 1.734-6.906-6.096-12.548-6.177-12.612l-1.329-.924-.049-1.622-.048-1.086c0-.113-.017-.227-.017-.324l-.048-.762c-.016-.113-.016-.243-.033-.357-.016-.259-.048-.518-.064-.761-.017-.098-.017-.195-.033-.308-.032-.357-.081-.698-.113-1.038l-.146-1.07c-.016-.065-.016-.113-.033-.178-.048-.292-.081-.584-.129-.86l-.049-.243-.146-.826c-.016-.065-.032-.146-.049-.211-.064-.34-.129-.665-.21-1.005-.081-.373-.179-.746-.26-1.119-.016-.048-.032-.113-.048-.162a15.324 15.324 0 0 0-.26-.94c-.016-.065-.032-.114-.048-.178a39.79 39.79 0 0 0-.665-2.092c-.016-.064-.049-.13-.065-.194-.113-.308-.211-.6-.324-.892-.016-.048-.032-.08-.049-.13-.129-.34-.259-.664-.405-1.004a.316.316 0 0 0-.065-.13 18.223 18.223 0 0 0-.373-.843c-.032-.065-.064-.146-.097-.21-.146-.309-.292-.633-.438-.941-.162-.308-.324-.632-.486-.94-.032-.065-.081-.146-.113-.211-.13-.243-.276-.486-.406-.73-.032-.064-.081-.13-.113-.194-.178-.292-.341-.584-.535-.875-.016-.033-.049-.065-.065-.098-.162-.26-.324-.502-.486-.762a1.203 1.203 0 0 0-.162-.227c-.162-.227-.325-.47-.487-.697a.898.898 0 0 0-.113-.145 26.363 26.363 0 0 0-.6-.811l-.146-.195c-.162-.21-.324-.421-.486-.616-.065-.08-.114-.146-.179-.227-.21-.259-.437-.518-.648-.778-2.886-3.29-5.771-5.252-7.392-6.192-1.605.94-4.491 2.902-7.392 6.192-5.771 6.582-8.884 15.125-9.224 25.419l-.049 1.621-1.329.924c-.065.049-7.911 5.69-6.16 12.596.048.211.113.405.162.6.016.048.032.081.032.13.049.145.081.291.13.437.016.033.032.065.032.114l.146.437c.016.033.016.049.032.081.05.146.114.292.163.438 0 .016.016.033.016.049l.194.437c0 .017.017.017.017.033.064.146.13.292.21.438.146.291.308.567.454.826.47.762.957 1.378 1.443 1.881l.032.032.211.211c.081.081.162.146.243.227.065-.178.114-.373.179-.551a.303.303 0 0 0 .032-.114 4.74 4.74 0 0 1 .162-.437c.033-.065.049-.146.081-.211.049-.114.081-.227.13-.341.032-.097.081-.194.13-.291 0-.017.016-.017.016-.033.243-.567.519-1.086.794-1.54l.016-.016.195-.292.016-.016c.13-.195.259-.373.389-.535l.016-.016c.049-.065.114-.146.179-.211a.434.434 0 0 0 .081-.097c.048-.065.113-.13.162-.179l.13-.129c.081-.081.145-.162.227-.227.048-.049.097-.097.162-.146.048-.033.081-.081.129-.114l.195-.145c.032-.033.065-.049.097-.082l.292-.194c.032-.016.065-.032.097-.065l.243-.146.098-.048c.113-.065.21-.114.324-.163l2.334-1.037 1.556 2.026c.308.389.616.795.941 1.2 1.54 1.961 3.193 4.004 4.393 5.382.162.178.308.34.438.503.064.064.113.129.178.194.016.016.032.032.032.049.065.065.114.129.162.178h12.094c1.345-1.427 4.004-4.701 6.16-7.506l1.556-2.075Zm-14.12-14.2c-5.057 0-9.159-4.118-9.159-9.16 0-5.057 4.118-9.159 9.159-9.159 5.042 0 9.16 4.118 9.16 9.16 0 5.041-4.102 9.159-9.16 9.159Z"/>
  <path fill="#fff" d="M107.608 60.418c5.269-5.884 10.505-8.17 10.716-8.267l1.28-.552 1.281.552c.227.097 5.463 2.383 10.715 8.267a40.472 40.472 0 0 1 5.447 7.765c-.356-22.095-18.464-39.976-40.657-39.976-16.34 0-30.963 9.727-37.35 24.527a32.424 32.424 0 0 1 4.004 1.735 32.88 32.88 0 0 1 11.316 9.678 3.258 3.258 0 0 1-.697 4.539 3.258 3.258 0 0 1-4.54-.697c-4.911-6.68-12.79-10.667-21.058-10.667-14.411 0-26.115 11.72-26.115 26.116 0 14.411 11.72 26.116 26.116 26.116h41.84a22.665 22.665 0 0 1-.746-2.432c-2.285-9.062 4.458-15.952 7.425-18.464.827-14.04 6.403-23.085 11.023-28.24ZM83.13 42.716c-5.35 3.064-8.008 7.23-8.04 7.279a1.643 1.643 0 0 1-1.379.761 1.607 1.607 0 0 1-1.362-2.48c.13-.194 3.13-4.895 9.176-8.365 5.576-3.193 14.881-5.9 27.558-.664a1.628 1.628 0 0 1 .876 2.123 1.628 1.628 0 0 1-2.124.876c-9.191-3.81-17.508-3.648-24.705.47Z"/>
  <path fill="#005BFF" d="M104.804 115.308c.373-.064.745-.129 1.102-.21-.276-.325-.535-.649-.794-.973-.114.373-.227.778-.308 1.183Z"/>
  <path fill="#005BFF" d="M134.113 114.125c.276.94.503 2.01.648 2.999l.438 3.339 3.323-.567c.357-.065 8.738-1.605 11.543-12.758 2.285-9.062-4.458-15.952-7.425-18.464a55.722 55.722 0 0 0-.843-6.939 47.242 47.242 0 0 0 1.767-12.855c0-12.596-4.912-24.446-13.812-33.346-8.916-8.916-20.75-13.811-33.346-13.811-19.307 0-36.555 11.72-43.72 29.439a33.584 33.584 0 0 0-4.588-.325c-17.978 0-32.6 14.623-32.6 32.6 0 17.979 14.622 32.601 32.6 32.601h45.877c3.177 3.177 6.533 3.809 6.76 3.842l3.307.551.437-3.323c.081-.6.195-1.216.341-1.816.097-.405.194-.81.308-1.183.259.324.535.648.794.972 1.702 2.075 3.469 4.086 4.474 4.831l.86.633h16.745l.86-.633c1.134-.843 3.323-3.42 5.252-5.787Zm-44.953-6.987c.21.859.47 1.67.746 2.432h-41.84c-14.412 0-26.117-11.72-26.117-26.116 0-14.412 11.721-26.116 26.116-26.116 8.284 0 16.146 3.988 21.058 10.667 1.054 1.443 3.097 1.75 4.54.697 1.442-1.054 1.75-3.096.697-4.54a32.88 32.88 0 0 0-11.316-9.677 32.424 32.424 0 0 0-4.004-1.735c6.387-14.816 21.01-24.543 37.35-24.543 22.193 0 40.301 17.88 40.673 39.992a40.012 40.012 0 0 0-5.446-7.765c-5.269-5.884-10.505-8.17-10.716-8.267l-1.281-.551-1.28.55c-.227.098-5.463 2.384-10.716 8.268-4.62 5.156-10.196 14.201-11.023 28.256-2.983 2.496-9.727 9.386-7.44 18.448Zm36.475 6.938h-12.061c-.049-.064-.114-.113-.162-.178-.017-.016-.033-.032-.033-.049-.065-.064-.113-.129-.178-.194-1.427-1.589-3.81-4.523-5.771-7.084l-1.556-2.027-2.335 1.038a1.96 1.96 0 0 0-.324.162l-.097.049-.243.145c-.033.017-.065.033-.098.065l-.292.195c-.032.032-.064.048-.097.081l-.194.146c-.049.032-.081.081-.13.113-.049.049-.097.098-.162.146-.081.081-.162.146-.227.227l-.13.13c-.048.065-.113.113-.162.178-.032.033-.065.065-.081.097-.065.065-.113.146-.178.211l-.016.016-.39.535-.016.017-.194.291-.016.017a8.364 8.364 0 0 0-.535 1.005 16.65 16.65 0 0 1-.26.551c0 .016-.016.016-.016.032-.049.097-.081.195-.13.292a2.9 2.9 0 0 0-.13.34c-.032.065-.048.13-.08.211-.05.146-.114.292-.163.438a.298.298 0 0 0-.032.113c-.065.179-.114.357-.178.552a3.153 3.153 0 0 1-.243-.227l-.211-.211-.033-.033a10.776 10.776 0 0 1-1.912-2.723c-.065-.146-.146-.292-.211-.438 0-.016-.017-.016-.017-.032l-.194-.438c0-.016-.016-.032-.016-.048a4.562 4.562 0 0 1-.162-.438c-.017-.033-.017-.049-.033-.081l-.146-.438a.233.233 0 0 1-.032-.113 4.539 4.539 0 0 1-.13-.438c-.016-.049-.032-.081-.032-.13-.049-.194-.114-.389-.162-.6-1.735-6.905 6.095-12.547 6.16-12.596l1.329-.924.049-1.62c.34-10.294 3.436-18.838 9.224-25.42 2.902-3.29 5.787-5.252 7.392-6.192 1.605.94 4.49 2.902 7.392 6.193.227.259.438.518.649.778.064.08.113.146.178.227.162.21.324.405.486.616l.146.194c.211.26.405.535.6.81a.894.894 0 0 0 .113.147c.163.227.325.454.487.697.048.08.097.162.162.227.162.243.324.502.486.762.016.032.049.065.065.097l.535.875c.032.065.081.13.113.195.146.243.276.486.406.73.032.064.081.145.113.21.162.308.324.616.487.94.145.308.308.616.437.94.033.065.065.146.098.211.129.276.243.552.372.843.017.049.033.097.065.13.146.324.276.665.405 1.005.017.049.033.081.049.13.114.291.227.6.324.891.017.065.049.13.065.195.243.68.454 1.394.665 2.091.016.065.032.114.048.178.082.308.179.633.26.94.016.05.032.114.048.163.179.697.341 1.41.471 2.123.016.065.032.146.048.211l.146.827.049.243c.048.292.097.567.129.86.017.064.017.113.033.177l.146 1.07c.048.34.081.698.113 1.038.016.097.016.195.033.308.016.26.048.502.065.762.016.113.016.243.032.356l.049.762c0 .114.016.211.016.325l.048 1.086.049 1.62.892.617.437.308c.081.049 7.911 5.69 6.177 12.612-.827 3.258-2.254 5.204-3.55 6.355-1.038-3.372-2.529-5.447-4.523-6.339l-2.335-1.037-1.556 2.026c-2.156 2.853-4.831 6.128-6.176 7.554Z"/>
  <path fill="#005BFF" d="M99.373 110.818c-.049.146-.113.292-.162.438.065-.146.114-.292.162-.438Zm.21-.535c-.048.114-.096.227-.129.34.049-.129.081-.243.13-.34Zm13.78 3.566c-.065-.064-.113-.129-.178-.194.065.065.13.13.178.194Zm-10.991-7.586-.194.146c.081-.049.146-.098.194-.146Zm-.308.259a1.392 1.392 0 0 1-.162.146c.049-.049.114-.097.162-.146Zm1.459-.94c-.113.049-.227.097-.324.162.113-.065.227-.113.324-.162Zm10.051 8.494c-.049-.064-.114-.113-.162-.178.048.049.113.114.162.178Zm-13.86-4.117c0 .016-.017.016-.017.032.017-.016.017-.016.017-.032Zm1.021-1.881-.016.017s0-.017.016-.017Zm-.211.308-.016.017c.016 0 .016 0 .016-.017Zm.859-1.183a.434.434 0 0 0-.081.097c.033-.016.049-.065.081-.097Zm31.174-33.557c.13.276.243.552.373.843a19.361 19.361 0 0 0-.373-.843Zm-.535-1.15c.146.307.308.615.438.94-.146-.308-.292-.633-.438-.94Zm2.529 6.63c.081.308.178.632.259.94a16.054 16.054 0 0 1-.259-.94Zm1.005 4.506c.049.292.097.568.13.86a18.787 18.787 0 0 0-.13-.86Zm-1.718-6.776c.243.681.454 1.394.664 2.091a38.9 38.9 0 0 0-.664-2.09Zm-.843-2.237c.146.324.275.665.405 1.005a17.94 17.94 0 0 1-.405-1.005Zm-36.394 34.108c.584 1.151 1.248 2.042 1.913 2.723a10.17 10.17 0 0 1-1.443-1.88c-.162-.26-.308-.535-.47-.843Zm11.753-.957c-.324-.405-.632-.81-.94-1.199 1.961 2.545 4.344 5.495 5.771 7.084a6.841 6.841 0 0 1-.438-.503c-1.2-1.377-2.853-3.404-4.393-5.382Zm26.959-25.418a82.47 82.47 0 0 0-.47-2.124c.097.373.178.746.259 1.119.081.34.146.68.211 1.005Zm.551 3.404c.048.34.081.697.113 1.037-.032-.34-.081-.697-.113-1.037Zm.243 2.464.049.762a95.03 95.03 0 0 1-.049-.762Zm.065 1.102.048 1.087-.048-1.087Zm-40.203 17.946-.146-.438c.048.162.097.308.146.438Zm-.357-1.102c-.049-.195-.113-.39-.162-.6.049.194.097.405.162.6Zm.989 2.561c-.065-.146-.146-.292-.21-.438.08.162.145.292.21.438Zm31.238-42.748c.163.21.325.405.487.616-.162-.195-.324-.406-.487-.616Zm3.178 4.652c.146.243.275.487.405.73a7.81 7.81 0 0 0-.405-.73Zm-2.545-3.842c.21.26.405.535.599.81-.194-.259-.389-.534-.599-.81Z"/>
  <path fill="#fff" d="M119.231 75.251c-3.258 0-5.917 2.659-5.917 5.917 0 3.259 2.659 5.917 5.917 5.917a5.929 5.929 0 0 0 5.917-5.917 5.929 5.929 0 0 0-5.917-5.917Z"/>
  <path fill="#06F3FF" d="M119.231 72.009c-5.057 0-9.159 4.118-9.159 9.16 0 5.057 4.118 9.158 9.159 9.158 5.042 0 9.16-4.117 9.16-9.159 0-5.041-4.102-9.159-9.16-9.159Zm0 15.092c-3.258 0-5.917-2.658-5.917-5.917 0-3.258 2.659-5.917 5.917-5.917a5.929 5.929 0 0 1 5.917 5.917 5.929 5.929 0 0 1-5.917 5.917Zm-4.295 36.572c-.892 0-1.622.73-1.622 1.621v16.114c0 .892.73 1.621 1.622 1.621.891 0 1.621-.729 1.621-1.621v-16.114c0-.891-.73-1.621-1.621-1.621Z"/>
  <path fill="#005BFF" d="M124.921 122.052a3.252 3.252 0 0 0-3.242 3.242v4.669a3.252 3.252 0 0 0 3.242 3.242 3.252 3.252 0 0 0 3.243-3.242v-4.669a3.242 3.242 0 0 0-3.243-3.242Zm-14.962-80.698a1.628 1.628 0 0 0-.876-2.124c-12.677-5.236-21.982-2.528-27.558.665-6.047 3.47-9.046 8.17-9.176 8.365a1.64 1.64 0 0 0 .503 2.237c.275.162.567.243.86.243.534 0 1.069-.275 1.377-.762.032-.048 2.691-4.215 8.04-7.279 7.182-4.117 15.498-4.28 24.706-.486.827.373 1.783-.032 2.124-.859Z"/>
</svg>
