<svg xmlns="http://www.w3.org/2000/svg" width="100" height="100" fill="none" viewBox="0 0 239 176">
  <path fill="#fff" d="M104.153 117.861c0 17.75-23.316 32.139-52.077 32.139C23.316 150 0 135.611 0 117.861 0 100.111 23.315 61 52.076 61s52.077 39.111 52.077 56.861Z"/>
  <path fill="#fff" d="M177 117.861c0 17.75-23.315 32.139-52.076 32.139s-52.077-14.389-52.077-32.139c0-17.75 23.316-56.861 52.077-56.861S177 100.111 177 117.861Z"/>
  <path fill="#fff" d="M233 88c0 33.689-29.768 30-66.219 30-36.45 0-66 3.689-66-30 0-33.69 29.55-61 66-61C203.232 27 233 54.31 233 88Z"/>
</svg>
